<svg id="svg" version="1.1" xmlns="http://www.w3.org/2000/svg" xmlns:xlink="http://www.w3.org/1999/xlink" width="400" height="400" viewBox="0, 0, 400,400"><g id="svgg"><path id="path0" d="M199.220 1.892 C 198.757 2.074,194.566 5.938,192.600 7.995 C 192.380 8.225,190.876 9.715,189.259 11.307 C 187.641 12.898,185.301 15.270,184.059 16.577 C 182.816 17.885,180.744 19.955,179.454 21.177 C 178.164 22.400,176.544 24.014,175.854 24.764 C 175.164 25.515,173.633 27.045,172.451 28.164 C 171.269 29.284,169.289 31.266,168.051 32.568 C 166.813 33.870,164.741 35.940,163.447 37.168 C 162.153 38.396,160.533 40.014,159.847 40.764 C 159.161 41.515,157.633 43.045,156.451 44.164 C 155.269 45.284,153.289 47.269,152.051 48.576 C 150.813 49.882,149.185 51.502,148.434 52.176 C 147.682 52.849,145.702 54.816,144.034 56.546 C 142.365 58.276,139.941 60.706,138.647 61.946 C 137.353 63.186,135.733 64.817,135.047 65.571 C 133.575 67.190,131.793 68.970,128.561 72.051 C 127.263 73.289,125.284 75.269,124.164 76.451 C 123.045 77.633,121.515 79.161,120.764 79.847 C 120.014 80.533,118.410 82.153,117.200 83.448 C 115.990 84.742,114.370 86.294,113.600 86.896 L 112.200 87.991 127.284 103.069 C 137.672 113.452,142.444 118.491,142.612 119.254 C 142.859 120.380,135.720 128.400,134.469 128.400 C 134.211 128.400,134.000 128.594,134.000 128.832 C 134.000 129.395,129.395 134.000,128.832 134.000 C 128.594 134.000,128.400 134.204,128.400 134.453 C 128.400 134.702,126.620 136.682,124.445 138.853 C 119.193 144.094,119.103 144.097,114.357 139.200 C 112.439 137.220,110.673 135.600,110.434 135.600 C 110.195 135.600,110.000 135.455,110.000 135.278 C 110.000 134.766,107.339 132.000,106.846 132.000 C 106.601 132.000,106.400 131.833,106.400 131.630 C 106.400 131.426,104.915 129.807,103.100 128.031 C 99.167 124.184,100.380 125.397,93.571 118.500 C 87.659 112.513,87.600 112.462,87.600 113.373 C 87.600 113.688,87.249 114.057,86.820 114.194 C 86.392 114.330,85.936 114.772,85.807 115.177 C 85.679 115.582,85.219 116.006,84.787 116.119 C 84.354 116.233,84.000 116.600,84.000 116.936 C 84.000 117.271,83.659 117.654,83.243 117.786 C 82.827 117.918,82.394 118.381,82.281 118.813 C 82.167 119.246,81.800 119.600,81.464 119.600 C 81.129 119.600,80.743 119.951,80.606 120.380 C 80.470 120.808,80.028 121.264,79.623 121.393 C 79.218 121.521,78.794 121.981,78.681 122.413 C 78.567 122.846,78.200 123.200,77.864 123.200 C 77.529 123.200,77.143 123.551,77.006 123.980 C 76.870 124.408,76.428 124.864,76.023 124.993 C 75.618 125.121,75.194 125.581,75.081 126.013 C 74.967 126.446,74.600 126.800,74.264 126.800 C 73.929 126.800,73.543 127.151,73.406 127.580 C 73.270 128.008,72.808 128.470,72.380 128.606 C 71.951 128.743,71.600 129.100,71.600 129.400 C 71.600 129.700,71.249 130.057,70.820 130.194 C 70.392 130.330,69.936 130.772,69.807 131.177 C 69.679 131.582,69.219 132.006,68.787 132.119 C 68.354 132.233,68.000 132.600,68.000 132.936 C 68.000 133.271,67.659 133.654,67.243 133.786 C 66.827 133.918,66.394 134.381,66.281 134.813 C 66.167 135.246,65.800 135.600,65.464 135.600 C 65.129 135.600,64.743 135.951,64.606 136.380 C 64.470 136.808,64.028 137.264,63.623 137.393 C 63.218 137.521,62.794 137.981,62.681 138.413 C 62.567 138.846,62.200 139.200,61.864 139.200 C 61.529 139.200,61.143 139.551,61.006 139.980 C 60.870 140.408,60.428 140.864,60.023 140.993 C 59.618 141.121,59.194 141.581,59.081 142.013 C 58.967 142.446,58.600 142.800,58.264 142.800 C 57.929 142.800,57.543 143.151,57.406 143.580 C 57.270 144.008,56.828 144.464,56.423 144.593 C 56.018 144.721,55.594 145.181,55.481 145.613 C 55.367 146.046,55.000 146.400,54.664 146.400 C 54.329 146.400,53.946 146.741,53.814 147.157 C 53.682 147.573,53.219 148.006,52.787 148.119 C 52.354 148.233,52.000 148.600,52.000 148.936 C 52.000 149.271,51.659 149.654,51.243 149.786 C 50.827 149.918,50.394 150.381,50.281 150.813 C 50.167 151.246,49.800 151.600,49.464 151.600 C 49.129 151.600,48.743 151.951,48.606 152.380 C 48.470 152.808,48.028 153.264,47.623 153.393 C 47.218 153.521,46.794 153.981,46.681 154.413 C 46.567 154.846,46.200 155.200,45.864 155.200 C 45.529 155.200,45.143 155.551,45.006 155.980 C 44.870 156.408,44.428 156.864,44.023 156.993 C 43.618 157.121,43.194 157.581,43.081 158.013 C 42.967 158.446,42.600 158.800,42.264 158.800 C 41.929 158.800,41.543 159.151,41.406 159.580 C 41.270 160.008,40.828 160.464,40.423 160.593 C 40.018 160.721,39.594 161.181,39.481 161.613 C 39.367 162.046,39.000 162.400,38.664 162.400 C 38.329 162.400,37.946 162.741,37.814 163.157 C 37.682 163.573,37.219 164.006,36.787 164.119 C 36.354 164.233,36.000 164.600,36.000 164.936 C 36.000 165.271,35.649 165.657,35.220 165.794 C 34.792 165.930,34.330 166.392,34.194 166.820 C 34.057 167.249,33.700 167.600,33.400 167.600 C 33.100 167.600,32.743 167.951,32.606 168.380 C 32.470 168.808,32.028 169.264,31.623 169.393 C 31.218 169.521,30.794 169.981,30.681 170.413 C 30.567 170.846,30.200 171.200,29.864 171.200 C 29.529 171.200,29.143 171.551,29.006 171.980 C 28.870 172.408,28.428 172.864,28.023 172.993 C 27.618 173.121,27.194 173.581,27.081 174.013 C 26.967 174.446,26.600 174.800,26.264 174.800 C 25.929 174.800,25.543 175.151,25.406 175.580 C 25.270 176.008,24.828 176.464,24.423 176.593 C 24.018 176.721,23.594 177.181,23.481 177.613 C 23.367 178.046,23.000 178.400,22.664 178.400 C 22.329 178.400,21.946 178.741,21.814 179.157 C 21.682 179.573,21.219 180.006,20.787 180.119 C 20.354 180.233,20.000 180.600,20.000 180.936 C 20.000 181.271,19.649 181.657,19.220 181.794 C 18.792 181.930,18.330 182.392,18.194 182.820 C 18.057 183.249,17.700 183.600,17.400 183.600 C 17.100 183.600,16.743 183.951,16.606 184.380 C 16.470 184.808,16.028 185.264,15.623 185.393 C 15.218 185.521,14.794 185.981,14.681 186.413 C 14.567 186.846,14.200 187.200,13.864 187.200 C 13.529 187.200,13.143 187.551,13.006 187.980 C 12.870 188.408,12.428 188.864,12.023 188.993 C 11.618 189.121,11.194 189.581,11.081 190.013 C 10.967 190.446,10.600 190.800,10.264 190.800 C 9.929 190.800,9.540 191.160,9.400 191.600 C 9.260 192.040,8.884 192.400,8.563 192.400 C 8.243 192.400,7.809 192.850,7.600 193.400 C 7.391 193.950,6.957 194.400,6.637 194.400 C 6.316 194.400,5.946 194.741,5.814 195.157 C 5.682 195.573,5.219 196.006,4.787 196.119 C 4.354 196.233,4.000 196.600,4.000 196.936 C 4.000 197.271,3.660 197.654,3.244 197.786 C 0.887 198.534,1.696 199.842,9.186 207.400 C 13.111 211.360,16.441 215.005,16.588 215.500 C 16.734 215.995,17.157 216.400,17.528 216.400 C 18.408 216.400,71.600 269.594,71.600 270.474 C 71.600 270.844,72.005 271.266,72.500 271.412 C 72.995 271.559,76.653 274.912,80.629 278.865 C 88.235 286.425,89.448 287.171,90.213 284.760 C 90.345 284.342,90.729 284.000,91.064 284.000 C 91.400 284.000,91.767 283.646,91.881 283.213 C 91.994 282.781,92.408 282.325,92.800 282.200 C 93.192 282.075,93.606 281.619,93.719 281.187 C 93.833 280.754,94.183 280.400,94.498 280.400 C 94.814 280.400,95.277 279.950,95.527 279.400 C 95.778 278.850,96.236 278.400,96.545 278.400 C 96.854 278.400,97.201 278.040,97.316 277.600 C 97.431 277.160,97.800 276.800,98.136 276.800 C 98.471 276.800,98.857 276.449,98.994 276.020 C 99.130 275.592,99.572 275.136,99.977 275.007 C 100.382 274.879,100.806 274.419,100.919 273.987 C 101.033 273.554,101.412 273.200,101.763 273.200 C 102.113 273.200,102.400 272.926,102.400 272.591 C 102.400 272.257,102.835 271.785,103.366 271.543 C 103.897 271.301,104.421 270.764,104.529 270.351 C 104.637 269.938,105.000 269.600,105.336 269.600 C 105.671 269.600,106.060 269.240,106.200 268.800 C 106.340 268.360,106.729 268.000,107.064 268.000 C 107.400 268.000,107.767 267.646,107.881 267.213 C 107.994 266.781,108.408 266.325,108.800 266.200 C 109.192 266.075,109.606 265.619,109.719 265.187 C 109.833 264.754,110.200 264.400,110.536 264.400 C 110.871 264.400,111.257 264.049,111.394 263.620 C 111.530 263.192,111.972 262.736,112.377 262.607 C 112.782 262.479,113.206 262.019,113.319 261.587 C 113.433 261.154,113.800 260.800,114.136 260.800 C 114.471 260.800,114.857 260.449,114.994 260.020 C 115.130 259.592,115.547 259.139,115.920 259.015 C 116.294 258.891,116.870 258.207,117.200 257.495 C 117.779 256.245,120.400 255.283,120.400 256.321 C 120.400 256.525,125.380 261.677,131.467 267.769 C 141.026 277.338,142.533 279.010,142.533 280.045 C 142.533 281.086,140.595 283.185,127.667 296.144 C 119.490 304.340,112.800 311.226,112.800 311.446 C 112.800 312.056,198.431 397.556,199.327 397.840 C 200.482 398.207,286.402 312.295,286.087 311.088 C 285.970 310.641,279.152 303.547,270.937 295.324 C 262.722 287.101,256.000 280.203,256.000 279.995 C 256.000 279.788,261.432 274.189,268.072 267.554 C 280.034 255.601,280.151 255.499,280.836 256.345 C 281.217 256.815,281.640 257.200,281.776 257.200 C 281.912 257.200,288.496 263.680,296.406 271.600 C 304.315 279.520,310.970 286.000,311.193 286.000 C 311.549 286.000,397.600 200.220,397.600 199.865 C 397.600 199.304,311.729 114.000,311.165 114.000 C 310.760 114.000,304.041 120.407,295.643 128.800 C 287.498 136.940,280.546 143.600,280.194 143.600 C 279.425 143.600,256.400 120.860,256.400 120.101 C 256.400 119.149,257.735 117.448,260.792 114.505 C 262.447 112.913,263.980 111.421,264.200 111.190 C 264.420 110.958,266.040 109.341,267.800 107.597 C 269.560 105.852,271.135 104.284,271.300 104.112 C 271.464 103.941,273.399 102.000,275.599 99.800 C 277.799 97.600,279.778 95.620,279.997 95.400 C 284.343 91.027,286.427 88.645,286.325 88.165 C 286.200 87.573,200.420 1.572,200.014 1.632 C 199.896 1.649,199.539 1.766,199.220 1.892 M206.623 62.814 C 208.100 63.727,209.991 66.655,210.018 68.071 C 210.027 68.582,210.312 69.720,210.650 70.600 C 210.989 71.480,211.502 73.100,211.791 74.200 C 212.081 75.300,212.606 76.869,212.959 77.687 C 213.311 78.505,213.600 79.550,213.600 80.009 C 213.600 80.468,213.938 81.599,214.351 82.522 C 214.764 83.445,215.231 85.093,215.388 86.184 C 215.545 87.275,216.018 88.605,216.437 89.138 C 216.857 89.671,217.204 90.669,217.209 91.354 C 217.214 92.039,217.544 93.320,217.943 94.200 C 218.342 95.080,218.784 96.520,218.924 97.400 C 219.065 98.280,219.545 99.713,219.990 100.585 C 220.436 101.456,220.801 102.626,220.802 103.185 C 220.804 103.743,221.067 104.703,221.388 105.318 C 221.709 105.933,222.170 107.534,222.414 108.875 C 222.657 110.216,223.112 111.704,223.425 112.183 C 224.434 113.722,224.647 116.830,223.786 117.460 C 221.535 119.105,211.204 117.966,211.198 116.071 C 211.196 115.702,210.913 114.860,210.569 114.200 C 210.224 113.540,209.702 111.740,209.408 110.200 C 209.114 108.660,208.565 106.545,208.189 105.500 L 207.505 103.600 198.962 103.600 C 189.105 103.600,189.579 103.404,188.762 107.823 C 188.522 109.121,188.093 110.637,187.810 111.192 C 187.526 111.746,187.165 113.150,187.008 114.310 C 186.535 117.800,185.685 118.154,178.308 117.936 C 172.885 117.775,172.066 117.405,173.026 115.550 C 173.359 114.906,173.818 113.366,174.047 112.127 C 174.276 110.888,174.698 109.498,174.985 109.037 C 175.271 108.577,175.626 107.390,175.773 106.400 C 175.920 105.410,176.287 104.223,176.588 103.763 C 176.890 103.302,177.329 101.882,177.565 100.608 C 177.800 99.333,178.170 98.078,178.385 97.818 C 178.601 97.558,178.983 96.386,179.234 95.214 C 179.486 94.042,180.027 92.345,180.437 91.442 C 180.847 90.539,181.187 89.350,181.194 88.800 C 181.200 88.250,181.489 87.260,181.836 86.600 C 182.183 85.940,182.626 84.430,182.821 83.245 C 183.016 82.059,183.435 80.799,183.752 80.445 C 184.070 80.090,184.454 78.900,184.608 77.800 C 184.761 76.700,185.125 75.420,185.415 74.957 C 185.706 74.493,186.153 72.963,186.407 71.557 C 186.662 70.150,187.035 68.800,187.237 68.556 C 187.439 68.312,187.858 67.271,188.168 66.241 C 188.692 64.498,189.979 63.020,191.573 62.328 C 193.264 61.594,205.277 61.982,206.623 62.814 M197.867 73.371 C 197.720 73.753,197.596 74.636,197.591 75.333 C 197.586 76.030,197.253 77.326,196.850 78.213 C 196.447 79.100,195.991 80.663,195.838 81.685 C 195.685 82.707,195.209 84.541,194.780 85.761 C 194.351 86.982,194.000 88.426,194.000 88.971 C 194.000 89.516,193.794 90.415,193.541 90.969 C 192.682 92.856,193.498 93.200,198.825 93.200 C 201.979 93.200,203.648 93.046,203.839 92.736 C 204.305 91.983,204.047 89.131,203.428 88.187 C 203.113 87.706,202.656 86.213,202.412 84.868 C 202.169 83.524,201.724 81.833,201.424 81.112 C 201.124 80.390,200.747 78.741,200.586 77.447 C 200.255 74.773,198.397 71.988,197.867 73.371 M100.819 172.841 C 101.387 173.212,103.051 173.571,104.770 173.693 C 108.522 173.959,108.945 174.409,108.684 177.862 C 108.582 179.217,108.206 180.742,107.849 181.251 C 107.492 181.761,107.197 182.633,107.194 183.189 C 107.182 185.139,107.173 185.140,96.562 185.274 L 86.538 185.400 85.269 186.599 C 84.571 187.258,84.000 188.089,84.000 188.445 C 84.000 188.801,83.640 189.550,83.200 190.109 C 82.445 191.069,82.400 191.732,82.400 201.874 C 82.400 212.127,82.437 212.654,83.200 213.307 C 83.640 213.684,84.000 214.450,84.000 215.009 C 84.000 215.614,84.283 216.127,84.700 216.278 C 85.085 216.417,85.878 216.861,86.462 217.265 C 87.424 217.931,88.476 218.000,97.713 218.000 C 109.645 218.000,108.864 217.683,109.123 222.629 C 109.221 224.483,109.458 226.000,109.650 226.000 C 110.317 226.000,109.962 227.006,108.830 228.329 C 107.717 229.631,107.610 229.663,103.746 229.881 C 101.477 230.009,99.545 230.318,99.200 230.607 C 98.334 231.334,86.438 231.350,85.602 230.625 C 85.271 230.338,83.920 230.009,82.600 229.892 C 79.995 229.663,76.000 227.878,76.000 226.943 C 76.000 226.644,75.793 226.400,75.540 226.400 C 75.026 226.400,72.400 223.821,72.400 223.316 C 72.400 223.138,72.049 222.773,71.620 222.505 C 71.191 222.237,70.716 221.359,70.565 220.554 C 70.414 219.749,69.955 218.755,69.545 218.345 C 69.069 217.869,68.800 217.028,68.800 216.012 C 68.800 215.139,68.428 213.712,67.974 212.841 C 66.821 210.628,66.925 192.071,68.100 190.411 C 68.531 189.802,68.800 188.688,68.800 187.511 C 68.800 186.180,69.026 185.374,69.545 184.855 C 69.955 184.445,70.410 183.472,70.556 182.693 C 70.702 181.915,71.073 181.181,71.381 181.063 C 71.688 180.945,72.237 180.221,72.601 179.455 C 72.996 178.621,73.812 177.801,74.631 177.412 C 75.384 177.055,76.000 176.582,76.000 176.360 C 76.000 176.139,76.540 175.770,77.200 175.540 C 77.860 175.310,78.400 174.988,78.400 174.825 C 78.400 174.324,80.367 173.600,81.730 173.600 C 82.441 173.600,83.377 173.352,83.811 173.048 C 85.113 172.137,85.912 172.058,93.019 172.130 C 98.514 172.186,100.028 172.324,100.819 172.841 M305.898 173.258 C 306.241 173.601,306.666 173.587,307.600 173.200 C 308.534 172.813,308.959 172.799,309.302 173.142 C 309.621 173.461,312.694 173.600,319.391 173.600 C 331.573 173.600,331.020 173.347,330.640 178.754 C 330.402 182.144,330.250 182.712,329.328 183.675 L 328.285 184.764 317.562 184.882 C 304.828 185.022,305.846 184.548,305.665 190.419 L 305.529 194.800 314.865 194.802 C 327.918 194.805,327.585 194.651,327.595 200.695 L 327.600 203.990 326.008 204.995 C 324.430 205.991,324.336 206.000,315.457 206.000 C 304.625 206.000,305.467 205.476,305.661 212.091 C 305.853 218.621,304.669 217.999,316.924 218.005 C 330.567 218.013,330.105 217.783,330.639 224.814 C 331.045 230.152,332.206 229.800,314.182 229.800 L 299.247 229.800 298.408 228.900 C 297.946 228.405,297.229 228.000,296.814 228.000 C 295.814 228.000,292.810 224.826,292.804 223.762 C 292.802 223.301,292.440 222.598,292.000 222.200 C 291.220 221.495,291.200 220.968,291.200 201.600 C 291.200 182.232,291.220 181.705,292.000 181.000 C 292.440 180.602,292.800 179.881,292.800 179.397 C 292.800 177.065,297.272 173.946,301.075 173.625 C 302.657 173.492,304.082 173.252,304.242 173.091 C 304.669 172.664,305.375 172.735,305.898 173.258 M211.429 284.849 C 213.064 285.262,215.542 285.857,217.114 286.214 C 218.495 286.528,218.888 288.064,218.432 291.359 C 217.821 295.768,218.328 295.600,205.629 295.600 L 194.947 295.600 193.674 297.039 C 191.026 300.029,193.312 304.620,197.845 305.417 C 198.700 305.567,199.788 305.933,200.263 306.230 C 200.737 306.527,201.997 306.986,203.063 307.251 C 204.128 307.515,205.360 307.954,205.800 308.226 C 206.240 308.499,207.215 308.850,207.966 309.007 C 211.075 309.657,215.461 312.621,217.866 315.697 C 220.339 318.860,221.654 329.427,219.906 332.094 C 219.576 332.599,219.180 333.579,219.028 334.273 C 217.696 340.336,208.142 342.855,191.000 341.662 C 182.309 341.058,179.801 340.017,180.437 337.280 C 180.626 336.466,180.785 335.047,180.790 334.126 C 180.796 333.205,180.976 331.990,181.190 331.426 L 181.580 330.400 192.690 330.395 C 205.611 330.388,205.234 330.448,206.345 328.224 C 208.087 324.737,205.937 320.939,201.850 320.283 C 200.998 320.146,200.003 319.765,199.640 319.436 C 199.276 319.107,198.174 318.714,197.190 318.563 C 196.205 318.411,194.732 317.953,193.916 317.544 C 193.100 317.135,192.089 316.800,191.670 316.800 C 191.251 316.800,190.479 316.465,189.954 316.055 C 189.429 315.645,188.550 315.172,188.000 315.004 C 186.857 314.655,186.465 314.350,184.057 311.943 C 181.489 309.375,181.290 309.106,180.984 307.797 C 180.831 307.139,180.425 306.153,180.082 305.607 C 177.073 300.807,181.465 287.202,186.358 286.165 C 186.931 286.044,188.210 285.645,189.200 285.279 C 192.541 284.044,207.124 283.762,211.429 284.849 " stroke="none" fill="#088d99" fill-rule="evenodd"></path><path id="path1" d="M0.000 99.400 C 0.000 154.070,0.135 198.796,0.300 198.791 C 0.465 198.787,1.140 198.136,1.800 197.346 C 2.460 196.557,3.228 195.705,3.507 195.455 C 3.985 195.025,8.659 190.379,11.498 187.511 C 12.212 186.790,13.877 185.152,15.198 183.871 C 16.519 182.590,17.600 181.375,17.600 181.171 C 17.600 180.967,17.858 180.800,18.173 180.800 C 18.488 180.800,18.860 180.440,19.000 180.000 C 19.140 179.560,19.402 179.200,19.584 179.200 C 19.766 179.200,21.329 177.765,23.057 176.011 C 28.214 170.779,28.695 170.299,31.198 167.871 C 32.519 166.590,33.600 165.375,33.600 165.171 C 33.600 164.967,33.858 164.800,34.173 164.800 C 34.488 164.800,34.860 164.440,35.000 164.000 C 35.140 163.560,35.402 163.200,35.584 163.200 C 35.843 163.200,39.559 159.592,42.600 156.389 C 42.820 156.157,44.800 154.178,47.000 151.991 C 49.200 149.804,51.180 147.831,51.400 147.606 C 51.620 147.381,53.240 145.763,55.000 144.010 C 57.907 141.115,59.936 139.077,61.297 137.686 C 61.574 137.404,62.408 136.594,63.150 135.886 C 66.077 133.098,67.200 131.906,67.200 131.587 C 67.200 131.404,67.560 131.140,68.000 131.000 C 68.440 130.860,68.800 130.488,68.800 130.173 C 68.800 129.858,68.967 129.600,69.171 129.600 C 69.375 129.600,70.590 128.519,71.871 127.198 C 74.299 124.695,74.779 124.214,80.011 119.057 C 81.765 117.329,83.200 115.766,83.200 115.584 C 83.200 115.402,83.560 115.140,84.000 115.000 C 84.440 114.860,84.800 114.488,84.800 114.173 C 84.800 113.858,84.981 113.600,85.203 113.600 C 85.424 113.600,85.997 113.150,86.475 112.600 C 88.009 110.835,88.305 111.073,103.856 126.600 C 112.119 134.850,119.130 141.600,119.436 141.600 C 120.014 141.600,122.400 139.320,122.400 138.768 C 122.400 138.595,122.760 138.340,123.200 138.200 C 123.640 138.060,124.000 137.688,124.000 137.373 C 124.000 137.058,124.145 136.800,124.322 136.800 C 124.789 136.800,127.600 134.159,127.600 133.720 C 127.600 133.516,128.365 132.770,129.300 132.062 C 130.235 131.354,131.530 130.061,132.177 129.188 C 132.824 128.314,133.517 127.600,133.716 127.600 C 134.171 127.600,136.231 125.419,136.542 124.606 C 136.670 124.273,137.038 124.000,137.360 124.000 C 137.683 124.000,138.060 123.640,138.200 123.200 C 138.340 122.760,138.595 122.400,138.768 122.400 C 139.189 122.400,141.600 120.077,141.600 119.671 C 141.600 119.494,134.850 112.590,126.600 104.330 C 110.707 88.417,109.745 87.210,112.400 86.516 C 112.840 86.401,113.200 86.148,113.200 85.953 C 113.200 85.453,117.479 81.200,117.983 81.200 C 118.212 81.200,118.400 81.014,118.400 80.787 C 118.400 80.249,121.049 77.600,121.587 77.600 C 121.814 77.600,122.000 77.438,122.000 77.240 C 122.000 76.771,124.771 74.000,125.240 74.000 C 125.438 74.000,125.600 73.713,125.600 73.363 C 125.600 73.012,125.954 72.633,126.387 72.519 C 126.819 72.406,127.279 71.982,127.407 71.577 C 127.536 71.172,127.992 70.730,128.420 70.594 C 128.849 70.457,129.200 70.182,129.200 69.982 C 129.200 69.491,133.515 65.200,134.009 65.200 C 134.224 65.200,134.400 65.014,134.400 64.787 C 134.400 64.249,137.049 61.600,137.587 61.600 C 137.814 61.600,138.000 61.438,138.000 61.240 C 138.000 60.771,140.771 58.000,141.240 58.000 C 141.438 58.000,141.600 57.814,141.600 57.587 C 141.600 57.049,144.249 54.400,144.787 54.400 C 145.014 54.400,145.200 54.224,145.200 54.009 C 145.200 53.499,149.499 49.200,150.009 49.200 C 150.224 49.200,150.400 49.014,150.400 48.787 C 150.400 48.249,153.049 45.600,153.587 45.600 C 153.814 45.600,154.000 45.438,154.000 45.240 C 154.000 44.771,156.771 42.000,157.240 42.000 C 157.438 42.000,157.600 41.814,157.600 41.587 C 157.600 41.049,160.249 38.400,160.787 38.400 C 161.014 38.400,161.200 38.212,161.200 37.983 C 161.200 37.451,165.466 33.200,166.000 33.200 C 166.220 33.200,166.400 33.014,166.400 32.787 C 166.400 32.249,169.049 29.600,169.587 29.600 C 169.814 29.600,170.000 29.438,170.000 29.240 C 170.000 28.771,172.771 26.000,173.240 26.000 C 173.438 26.000,173.600 25.814,173.600 25.587 C 173.600 25.049,176.249 22.400,176.787 22.400 C 177.014 22.400,177.200 22.224,177.200 22.009 C 177.200 21.515,181.491 17.200,181.982 17.200 C 182.182 17.200,182.457 16.849,182.594 16.420 C 182.730 15.992,183.172 15.536,183.577 15.407 C 183.982 15.279,184.406 14.819,184.519 14.387 C 184.633 13.954,185.012 13.600,185.363 13.600 C 185.713 13.600,186.000 13.438,186.000 13.240 C 186.000 12.904,186.636 12.240,190.194 8.866 C 190.967 8.133,191.600 7.380,191.600 7.193 C 191.600 7.007,191.960 6.740,192.400 6.600 C 192.840 6.460,193.200 6.182,193.200 5.982 C 193.200 5.491,197.515 1.200,198.009 1.200 C 198.224 1.200,198.400 0.930,198.400 0.600 C 198.400 0.068,187.111 0.000,99.200 0.000 L 0.000 0.000 0.000 99.400 M201.200 0.375 C 201.200 0.582,220.820 20.372,244.800 44.352 C 268.780 68.333,288.400 88.057,288.400 88.183 C 288.400 88.309,287.635 89.200,286.700 90.164 C 285.765 91.127,284.425 92.520,283.722 93.258 C 283.019 93.996,282.209 94.820,281.922 95.089 C 281.635 95.358,281.197 95.785,280.950 96.039 C 280.703 96.293,279.893 97.105,279.150 97.844 C 278.407 98.583,277.219 99.775,276.509 100.494 C 275.799 101.212,274.629 102.384,273.909 103.097 C 273.189 103.811,272.397 104.598,272.150 104.847 C 271.902 105.096,271.092 105.905,270.350 106.644 C 269.607 107.383,268.420 108.575,267.711 109.294 C 267.002 110.012,266.192 110.820,265.911 111.089 C 265.630 111.358,265.198 111.785,264.950 112.039 C 264.703 112.293,263.893 113.105,263.150 113.844 C 262.408 114.583,261.200 115.820,260.466 116.594 C 259.733 117.367,258.987 118.000,258.810 118.000 C 258.632 118.000,258.374 118.448,258.237 118.996 C 258.014 119.884,259.188 121.190,269.037 131.011 L 280.086 142.030 295.053 127.056 C 303.585 118.519,310.436 111.977,310.989 111.838 C 311.930 111.602,397.468 196.311,398.797 198.795 C 399.034 199.238,399.402 199.600,399.614 199.600 C 399.861 199.600,400.000 163.640,400.000 99.800 L 400.000 0.000 300.600 0.000 C 238.936 0.000,201.200 0.143,201.200 0.375 M191.800 63.982 C 190.366 64.575,189.296 66.158,188.832 68.373 C 188.582 69.568,188.201 70.758,187.985 71.018 C 187.770 71.278,187.401 72.550,187.166 73.845 C 186.931 75.140,186.496 76.579,186.198 77.042 C 185.901 77.504,185.532 78.584,185.379 79.442 C 185.225 80.299,184.782 81.720,184.394 82.600 C 184.006 83.480,183.563 85.136,183.409 86.280 C 183.256 87.424,182.896 88.555,182.609 88.793 C 182.322 89.031,181.960 90.075,181.806 91.113 C 181.651 92.151,181.205 93.720,180.815 94.600 C 180.425 95.480,179.986 96.988,179.840 97.951 C 179.694 98.914,179.310 100.079,178.987 100.540 C 178.664 101.001,178.400 101.793,178.400 102.301 C 178.400 102.809,177.974 104.254,177.453 105.512 C 176.932 106.770,176.383 108.610,176.233 109.600 C 176.083 110.590,175.714 111.775,175.414 112.233 C 175.114 112.692,174.808 113.862,174.734 114.833 L 174.600 116.600 179.416 116.712 L 184.232 116.823 185.058 115.706 C 185.540 115.055,186.008 113.590,186.181 112.195 C 186.344 110.878,186.820 109.045,187.239 108.122 C 187.657 107.199,188.000 105.928,188.000 105.298 C 188.000 102.677,188.219 102.614,197.824 102.471 C 209.173 102.302,209.427 102.412,210.214 107.809 C 210.373 108.904,210.745 110.276,211.041 110.858 C 211.336 111.440,211.697 112.700,211.843 113.658 C 212.335 116.871,212.195 116.800,218.014 116.800 L 223.200 116.800 223.200 115.649 C 223.200 115.016,222.950 114.290,222.643 114.036 C 222.337 113.782,221.960 112.727,221.805 111.692 C 221.650 110.657,221.291 109.358,221.007 108.805 C 220.723 108.252,220.271 106.720,220.002 105.400 C 219.733 104.080,219.359 102.808,219.169 102.574 C 218.980 102.340,218.563 101.025,218.243 99.652 C 217.923 98.278,217.483 96.940,217.267 96.677 C 217.051 96.415,216.684 95.169,216.452 93.910 C 216.221 92.650,215.780 91.120,215.473 90.510 C 215.165 89.899,214.798 88.770,214.656 88.000 C 214.513 87.230,214.140 86.060,213.826 85.400 C 213.511 84.740,212.994 83.120,212.677 81.800 C 212.360 80.480,211.916 78.860,211.692 78.200 C 211.468 77.540,210.977 76.100,210.603 75.000 C 210.228 73.900,209.694 72.005,209.416 70.788 C 209.139 69.571,208.616 68.005,208.256 67.308 C 207.895 66.610,207.600 65.765,207.600 65.430 C 207.600 63.824,194.978 62.667,191.800 63.982 M199.840 71.506 C 200.590 72.007,201.081 73.311,201.368 75.563 C 201.520 76.752,201.896 78.213,202.205 78.809 C 202.513 79.405,202.946 81.015,203.167 82.387 C 203.388 83.758,203.757 85.107,203.988 85.385 C 204.218 85.663,204.597 86.950,204.829 88.245 C 205.061 89.540,205.461 91.202,205.719 91.937 C 206.493 94.147,205.739 94.400,198.366 94.400 C 193.008 94.400,192.050 94.307,191.843 93.767 C 191.409 92.636,191.585 91.198,192.344 89.684 C 192.753 88.868,193.209 87.124,193.358 85.808 C 193.507 84.492,193.877 83.037,194.180 82.575 C 194.483 82.112,194.859 80.848,195.014 79.767 C 195.170 78.685,195.636 77.045,196.049 76.122 C 196.462 75.199,196.800 74.062,196.800 73.596 C 196.800 71.667,198.417 70.556,199.840 71.506 M82.800 174.766 C 82.030 174.943,80.860 175.381,80.200 175.741 C 79.540 176.101,78.790 176.396,78.534 176.398 C 78.071 176.400,76.909 177.286,74.858 179.200 C 73.731 180.252,71.600 183.637,71.600 184.376 C 71.600 184.614,71.249 185.572,70.819 186.504 C 68.826 190.834,68.648 214.157,70.591 216.400 C 70.877 216.730,71.241 217.610,71.399 218.355 C 72.180 222.022,76.092 225.977,80.685 227.742 L 83.800 228.938 92.800 228.951 C 100.023 228.962,102.195 228.837,103.800 228.318 C 104.900 227.962,106.317 227.556,106.949 227.416 L 108.098 227.160 107.920 223.771 C 107.823 221.907,107.535 220.175,107.282 219.922 C 106.770 219.410,106.897 219.411,97.471 219.821 C 82.878 220.456,80.650 218.074,80.614 201.800 C 80.590 190.940,82.617 184.403,86.011 184.400 C 86.347 184.400,87.067 184.085,87.611 183.700 C 88.491 183.077,89.560 183.011,97.276 183.096 L 105.952 183.192 106.161 181.496 C 107.042 174.349,107.769 174.769,94.200 174.583 C 88.700 174.507,83.570 174.589,82.800 174.766 M302.200 174.798 C 293.604 175.668,292.694 178.406,292.907 202.761 C 293.100 224.674,293.425 225.806,300.068 227.664 C 304.782 228.982,326.824 228.463,328.351 226.998 C 328.790 226.577,328.831 225.826,328.551 223.334 L 328.200 220.200 317.600 220.000 C 303.114 219.727,303.425 219.942,303.670 210.346 C 303.841 203.647,302.796 204.224,315.019 204.081 L 325.200 203.962 325.200 200.813 C 325.200 195.977,326.196 196.400,314.819 196.400 C 302.626 196.400,303.471 196.866,303.665 190.251 L 303.800 185.642 305.178 184.221 L 306.557 182.800 317.444 182.800 L 328.332 182.800 328.599 179.900 C 328.761 178.146,328.699 176.565,328.443 175.900 L 328.020 174.800 318.710 174.750 C 313.589 174.723,308.230 174.677,306.800 174.648 C 305.370 174.619,303.300 174.686,302.200 174.798 M355.800 244.199 C 326.466 273.628,311.924 287.950,311.356 287.970 C 310.759 287.991,306.251 283.716,295.956 273.367 C 287.950 265.319,281.060 258.550,280.645 258.324 C 279.542 257.724,257.687 279.511,258.297 280.601 C 258.513 280.988,265.285 287.907,273.345 295.978 C 282.590 305.234,288.000 310.938,288.000 311.430 C 288.000 312.142,202.259 398.380,201.201 398.733 C 200.980 398.807,200.800 399.122,200.800 399.433 C 200.800 399.921,214.737 400.000,300.400 400.000 L 400.000 400.000 400.000 300.200 C 400.000 245.310,399.865 200.413,399.700 200.429 C 399.535 200.445,379.780 220.141,355.800 244.199 M0.000 300.600 L 0.000 400.000 99.600 400.000 C 163.312 400.000,199.200 399.861,199.200 399.614 C 199.200 399.402,198.837 399.034,198.394 398.797 C 196.299 397.675,111.600 312.356,111.600 311.367 C 111.600 310.579,114.691 307.268,125.900 296.049 C 133.765 288.177,140.535 281.355,140.944 280.888 C 141.822 279.887,120.381 257.725,119.033 258.243 C 118.687 258.376,111.663 265.215,103.424 273.442 C 95.186 281.669,88.289 288.400,88.099 288.400 C 87.909 288.400,86.116 286.735,84.113 284.700 C 82.110 282.665,78.251 278.809,75.536 276.130 C 72.821 273.452,61.600 262.239,50.600 251.214 C 39.600 240.188,27.180 227.766,23.000 223.608 C 18.820 219.451,12.084 212.708,8.030 208.625 C 3.977 204.541,0.512 201.200,0.330 201.200 C 0.149 201.200,0.000 245.930,0.000 300.600 M195.000 285.627 C 194.340 285.824,192.376 286.193,190.636 286.448 C 186.804 287.008,185.217 287.887,182.985 290.680 C 180.546 293.733,180.435 306.083,182.824 308.626 C 183.251 309.080,183.600 309.589,183.600 309.757 C 183.600 310.189,185.864 312.400,186.307 312.400 C 186.510 312.400,187.002 312.760,187.400 313.200 C 187.798 313.640,188.323 314.000,188.565 314.000 C 188.808 314.000,189.852 314.450,190.885 315.000 C 191.918 315.550,193.179 316.000,193.688 316.000 C 194.196 316.000,195.284 316.360,196.104 316.800 C 196.925 317.240,197.913 317.602,198.299 317.604 C 198.684 317.606,199.900 318.050,201.000 318.591 C 202.100 319.132,203.391 319.581,203.869 319.587 C 206.156 319.620,208.400 322.873,208.400 326.155 C 208.400 331.199,205.450 332.157,191.706 331.578 C 181.354 331.142,182.175 330.852,181.853 335.051 C 181.549 339.003,181.619 339.200,183.324 339.200 C 184.027 339.200,186.491 339.560,188.800 340.000 C 193.373 340.871,204.534 341.119,207.200 340.408 C 207.970 340.202,209.770 339.747,211.200 339.396 C 212.630 339.046,213.980 338.527,214.200 338.245 C 214.420 337.962,215.005 337.515,215.500 337.251 C 215.995 336.988,216.400 336.565,216.400 336.312 C 216.400 336.059,216.752 335.477,217.181 335.020 C 219.456 332.598,219.469 317.200,217.196 317.200 C 217.008 317.200,216.733 316.820,216.586 316.355 C 216.202 315.146,212.132 311.600,211.127 311.600 C 210.820 311.600,209.866 311.242,209.007 310.804 C 208.148 310.366,206.805 309.894,206.022 309.755 C 205.240 309.616,204.060 309.186,203.400 308.800 C 202.740 308.414,201.480 307.972,200.600 307.819 C 199.720 307.666,198.637 307.308,198.194 307.023 C 197.751 306.738,196.832 306.383,196.151 306.233 C 192.001 305.322,189.970 299.138,192.791 296.000 L 194.049 294.600 205.180 294.472 L 216.311 294.344 216.556 293.122 C 217.627 287.764,216.967 286.978,210.924 286.413 C 208.242 286.163,205.453 285.787,204.727 285.579 C 203.091 285.110,196.625 285.142,195.000 285.627 " stroke="none" fill="#fbfbfb" fill-rule="evenodd"></path><path id="path2" d="M198.400 0.600 C 198.400 0.930,198.224 1.200,198.009 1.200 C 197.515 1.200,193.200 5.491,193.200 5.982 C 193.200 6.182,192.840 6.460,192.400 6.600 C 191.960 6.740,191.600 7.004,191.600 7.187 C 191.600 7.498,190.940 8.183,187.406 11.534 C 186.633 12.267,186.000 13.011,186.000 13.187 C 186.000 13.363,185.640 13.601,185.200 13.716 C 184.760 13.831,184.400 14.200,184.400 14.536 C 184.400 14.871,184.049 15.257,183.620 15.394 C 183.192 15.530,182.730 15.992,182.594 16.420 C 182.457 16.849,182.182 17.200,181.982 17.200 C 181.491 17.200,177.200 21.515,177.200 22.009 C 177.200 22.224,177.014 22.400,176.787 22.400 C 176.249 22.400,173.600 25.049,173.600 25.587 C 173.600 25.814,173.438 26.000,173.240 26.000 C 172.771 26.000,170.000 28.771,170.000 29.240 C 170.000 29.438,169.814 29.600,169.587 29.600 C 169.049 29.600,166.400 32.249,166.400 32.787 C 166.400 33.014,166.220 33.200,166.000 33.200 C 165.466 33.200,161.200 37.451,161.200 37.983 C 161.200 38.212,161.014 38.400,160.787 38.400 C 160.249 38.400,157.600 41.049,157.600 41.587 C 157.600 41.814,157.438 42.000,157.240 42.000 C 156.771 42.000,154.000 44.771,154.000 45.240 C 154.000 45.438,153.814 45.600,153.587 45.600 C 153.049 45.600,150.400 48.249,150.400 48.787 C 150.400 49.014,150.224 49.200,150.009 49.200 C 149.499 49.200,145.200 53.499,145.200 54.009 C 145.200 54.224,145.014 54.400,144.787 54.400 C 144.249 54.400,141.600 57.049,141.600 57.587 C 141.600 57.814,141.438 58.000,141.240 58.000 C 140.771 58.000,138.000 60.771,138.000 61.240 C 138.000 61.438,137.814 61.600,137.587 61.600 C 137.049 61.600,134.400 64.249,134.400 64.787 C 134.400 65.014,134.224 65.200,134.009 65.200 C 133.515 65.200,129.200 69.491,129.200 69.982 C 129.200 70.182,128.849 70.457,128.420 70.594 C 127.992 70.730,127.536 71.172,127.407 71.577 C 127.279 71.982,126.819 72.406,126.387 72.519 C 125.954 72.633,125.600 73.012,125.600 73.363 C 125.600 73.713,125.438 74.000,125.240 74.000 C 124.771 74.000,122.000 76.771,122.000 77.240 C 122.000 77.438,121.814 77.600,121.587 77.600 C 121.049 77.600,118.400 80.249,118.400 80.787 C 118.400 81.014,118.212 81.200,117.983 81.200 C 117.479 81.200,113.200 85.453,113.200 85.953 C 113.200 86.148,112.840 86.401,112.400 86.516 C 109.745 87.210,110.707 88.417,126.600 104.330 C 134.850 112.590,141.600 119.494,141.600 119.671 C 141.600 120.077,139.189 122.400,138.768 122.400 C 138.595 122.400,138.340 122.760,138.200 123.200 C 138.060 123.640,137.683 124.000,137.360 124.000 C 137.038 124.000,136.670 124.273,136.542 124.606 C 136.231 125.419,134.171 127.600,133.716 127.600 C 133.517 127.600,132.824 128.314,132.177 129.188 C 131.530 130.061,130.235 131.354,129.300 132.062 C 128.365 132.770,127.600 133.516,127.600 133.720 C 127.600 134.159,124.789 136.800,124.322 136.800 C 124.145 136.800,124.000 137.058,124.000 137.373 C 124.000 137.688,123.640 138.060,123.200 138.200 C 122.760 138.340,122.400 138.595,122.400 138.768 C 122.400 139.320,120.014 141.600,119.436 141.600 C 119.130 141.600,112.119 134.850,103.856 126.600 C 88.305 111.073,88.009 110.835,86.475 112.600 C 85.997 113.150,85.424 113.600,85.203 113.600 C 84.981 113.600,84.800 113.858,84.800 114.173 C 84.800 114.488,84.440 114.860,84.000 115.000 C 83.560 115.140,83.200 115.402,83.200 115.584 C 83.200 115.766,81.765 117.329,80.011 119.057 C 74.779 124.214,74.299 124.695,71.871 127.198 C 70.590 128.519,69.375 129.600,69.171 129.600 C 68.967 129.600,68.800 129.858,68.800 130.173 C 68.800 130.488,68.440 130.860,68.000 131.000 C 67.560 131.140,67.200 131.404,67.200 131.587 C 67.200 131.906,66.077 133.098,63.150 135.886 C 62.408 136.594,61.574 137.404,61.297 137.686 C 59.936 139.077,57.907 141.115,55.000 144.010 C 53.240 145.763,51.620 147.381,51.400 147.606 C 51.180 147.831,49.200 149.804,47.000 151.991 C 44.800 154.178,42.820 156.157,42.600 156.389 C 39.559 159.592,35.843 163.200,35.584 163.200 C 35.402 163.200,35.140 163.560,35.000 164.000 C 34.860 164.440,34.488 164.800,34.173 164.800 C 33.858 164.800,33.600 164.967,33.600 165.171 C 33.600 165.375,32.519 166.590,31.198 167.871 C 28.695 170.299,28.214 170.779,23.057 176.011 C 21.329 177.765,19.766 179.200,19.584 179.200 C 19.402 179.200,19.140 179.560,19.000 180.000 C 18.860 180.440,18.488 180.800,18.173 180.800 C 17.858 180.800,17.600 180.967,17.600 181.171 C 17.600 181.375,16.519 182.590,15.198 183.871 C 13.877 185.152,12.212 186.790,11.498 187.511 C 10.485 188.535,5.305 193.705,3.496 195.499 C 0.392 198.576,-0.331 199.600,0.600 199.600 C 0.930 199.600,1.200 199.401,1.200 199.159 C 1.200 198.916,20.741 179.172,44.624 155.285 L 88.048 111.852 103.124 126.888 C 111.416 135.157,118.590 142.038,119.067 142.178 C 120.173 142.503,142.000 120.931,142.000 119.511 C 142.000 118.936,137.266 113.928,127.100 103.748 C 118.905 95.542,112.200 88.549,112.200 88.210 C 112.200 87.681,148.897 50.699,188.178 11.643 C 200.295 -0.405,199.918 0.000,199.000 0.000 C 198.670 0.000,198.400 0.270,198.400 0.600 M200.400 0.405 C 200.400 0.627,220.024 20.434,244.009 44.420 L 287.618 88.030 286.619 89.315 C 286.070 90.022,279.390 96.810,271.774 104.400 C 264.158 111.990,257.755 118.639,257.544 119.177 C 257.135 120.221,278.575 142.389,280.002 142.397 C 280.333 142.398,287.247 135.756,295.366 127.634 C 303.857 119.141,310.510 112.796,311.028 112.697 C 312.158 112.481,398.400 198.455,398.400 199.797 C 398.400 201.123,312.111 287.151,311.046 286.887 C 310.581 286.772,303.747 280.222,295.859 272.331 C 280.796 257.262,280.429 256.935,279.300 257.558 C 278.158 258.188,257.200 279.391,257.200 279.916 C 257.200 280.624,258.661 282.157,273.339 296.843 C 281.392 304.900,286.784 310.598,286.928 311.204 C 287.162 312.186,201.298 398.856,200.174 398.772 C 199.968 398.756,199.466 398.612,199.058 398.452 C 198.122 398.084,112.000 312.020,112.000 311.453 C 112.000 311.223,118.750 304.269,127.000 296.000 C 136.799 286.179,142.000 280.686,142.000 280.159 C 142.000 279.247,120.274 257.200,119.374 257.200 C 119.077 257.200,112.294 263.725,104.302 271.700 C 96.310 279.675,89.392 286.525,88.929 286.923 C 88.097 287.637,84.152 284.100,71.600 271.388 C 70.477 270.251,17.002 216.788,16.493 216.293 C 16.214 216.022,12.589 212.335,8.438 208.100 C 1.476 200.996,0.000 199.719,0.000 200.800 C 0.000 201.020,0.149 201.200,0.330 201.200 C 0.512 201.200,3.977 204.541,8.030 208.625 C 12.084 212.708,18.820 219.451,23.000 223.608 C 27.180 227.766,39.600 240.188,50.600 251.214 C 61.600 262.239,72.821 273.452,75.536 276.130 C 78.251 278.809,82.110 282.665,84.113 284.700 C 86.116 286.735,87.909 288.400,88.099 288.400 C 88.289 288.400,95.186 281.669,103.424 273.442 C 111.663 265.215,118.687 258.376,119.033 258.243 C 120.381 257.725,141.822 279.887,140.944 280.888 C 140.535 281.355,133.765 288.177,125.900 296.049 C 114.685 307.274,111.600 310.579,111.600 311.368 C 111.600 312.184,192.348 393.604,198.806 399.300 C 199.763 400.144,200.800 400.213,200.800 399.433 C 200.800 399.122,200.980 398.807,201.201 398.733 C 202.259 398.380,288.000 312.142,288.000 311.430 C 288.000 310.938,282.590 305.234,273.345 295.978 C 265.285 287.907,258.513 280.988,258.297 280.601 C 257.687 279.511,279.542 257.724,280.645 258.324 C 281.060 258.550,287.950 265.319,295.956 273.367 C 304.824 282.282,310.807 288.000,311.266 288.000 C 312.935 288.000,400.080 200.092,399.294 199.201 C 392.400 191.379,311.796 111.636,310.990 111.838 C 310.436 111.977,303.593 118.511,295.053 127.056 L 280.086 142.030 269.037 131.011 C 259.188 121.190,258.014 119.884,258.237 118.996 C 258.374 118.448,258.629 118.000,258.803 118.000 C 258.978 118.000,259.723 117.373,260.460 116.606 C 262.076 114.926,264.189 112.781,264.889 112.111 C 265.170 111.842,265.603 111.415,265.850 111.161 C 266.098 110.907,266.908 110.095,267.650 109.356 C 268.393 108.617,269.584 107.425,270.297 106.706 C 271.912 105.080,272.280 104.712,273.906 103.097 C 275.876 101.141,277.655 99.359,279.089 97.906 C 279.798 97.188,280.608 96.380,280.889 96.111 C 281.738 95.299,282.366 94.664,283.714 93.258 C 284.421 92.520,285.765 91.127,286.700 90.164 C 287.635 89.200,288.400 88.309,288.400 88.183 C 288.400 88.057,268.780 68.333,244.800 44.352 C 220.820 20.372,201.200 0.582,201.200 0.375 C 201.200 0.169,201.020 0.000,200.800 0.000 C 200.580 0.000,200.400 0.182,200.400 0.405 M190.745 63.779 C 189.222 64.814,188.772 65.940,185.789 76.200 C 185.213 78.180,184.509 80.341,184.224 81.002 C 183.940 81.662,183.583 82.832,183.431 83.602 C 183.279 84.371,182.821 85.990,182.412 87.200 C 182.003 88.410,181.188 91.020,180.600 93.000 C 179.290 97.415,178.120 101.217,177.338 103.600 C 177.013 104.590,176.414 106.570,176.007 108.000 C 175.600 109.430,174.883 111.934,174.414 113.564 C 173.347 117.274,173.220 117.186,179.624 117.194 C 185.680 117.201,185.815 117.127,186.579 113.400 C 186.895 111.860,187.415 109.790,187.735 108.800 C 188.055 107.810,188.471 106.284,188.659 105.410 C 188.893 104.317,189.313 103.662,190.000 103.316 C 191.408 102.606,206.777 102.592,207.698 103.300 C 208.391 103.832,209.976 108.162,210.036 109.687 C 210.056 110.189,210.551 112.040,211.136 113.800 L 212.200 117.000 217.908 117.111 C 224.386 117.237,224.438 117.211,223.392 114.361 C 223.037 113.393,222.416 111.430,222.011 110.000 C 220.326 104.040,219.622 101.714,219.045 100.200 C 218.710 99.320,218.427 98.276,218.418 97.880 C 218.408 97.484,218.123 96.625,217.785 95.970 C 217.446 95.316,216.982 93.750,216.754 92.490 C 216.526 91.231,216.106 89.837,215.822 89.394 C 215.538 88.951,215.177 87.961,215.020 87.194 C 214.864 86.427,214.414 84.900,214.021 83.800 C 213.629 82.700,213.186 81.133,213.039 80.317 C 212.891 79.501,212.508 78.331,212.188 77.717 C 211.867 77.103,211.604 76.306,211.602 75.948 C 211.601 75.589,211.150 74.100,210.600 72.638 C 210.050 71.177,209.600 69.615,209.600 69.166 C 209.600 67.632,207.586 64.014,206.388 63.394 C 204.213 62.269,192.544 62.556,190.745 63.779 M206.420 64.210 C 207.069 64.546,207.600 65.095,207.600 65.430 C 207.600 65.765,207.895 66.610,208.256 67.308 C 208.616 68.005,209.139 69.571,209.416 70.788 C 209.694 72.005,210.228 73.900,210.603 75.000 C 210.977 76.100,211.468 77.540,211.692 78.200 C 211.916 78.860,212.360 80.480,212.677 81.800 C 212.994 83.120,213.511 84.740,213.826 85.400 C 214.140 86.060,214.513 87.230,214.656 88.000 C 214.798 88.770,215.165 89.899,215.473 90.510 C 215.780 91.120,216.221 92.650,216.452 93.910 C 216.684 95.169,217.051 96.415,217.267 96.677 C 217.483 96.940,217.923 98.278,218.243 99.652 C 218.563 101.025,218.980 102.340,219.169 102.574 C 219.359 102.808,219.733 104.080,220.002 105.400 C 220.271 106.720,220.723 108.252,221.007 108.805 C 221.291 109.358,221.650 110.657,221.805 111.692 C 221.960 112.727,222.337 113.782,222.643 114.036 C 222.950 114.290,223.200 115.016,223.200 115.649 L 223.200 116.800 218.014 116.800 C 212.195 116.800,212.335 116.871,211.843 113.658 C 211.697 112.700,211.336 111.440,211.041 110.858 C 210.745 110.276,210.373 108.904,210.214 107.809 C 209.427 102.412,209.173 102.302,197.824 102.471 C 188.219 102.614,188.000 102.677,188.000 105.298 C 188.000 105.928,187.657 107.199,187.239 108.122 C 186.820 109.045,186.344 110.878,186.181 112.195 C 186.008 113.590,185.540 115.055,185.058 115.706 L 184.232 116.823 179.416 116.712 L 174.600 116.600 174.734 114.833 C 174.808 113.862,175.114 112.692,175.414 112.233 C 175.714 111.775,176.083 110.590,176.233 109.600 C 176.383 108.610,176.932 106.770,177.453 105.512 C 177.974 104.254,178.400 102.809,178.400 102.301 C 178.400 101.793,178.664 101.001,178.987 100.540 C 179.310 100.079,179.694 98.914,179.840 97.951 C 179.986 96.988,180.425 95.480,180.815 94.600 C 181.205 93.720,181.651 92.151,181.806 91.113 C 181.960 90.075,182.322 89.031,182.609 88.793 C 182.896 88.555,183.256 87.424,183.409 86.280 C 183.563 85.136,184.006 83.480,184.394 82.600 C 184.782 81.720,185.225 80.299,185.379 79.442 C 185.532 78.584,185.901 77.504,186.198 77.042 C 186.496 76.579,186.931 75.140,187.166 73.845 C 187.401 72.550,187.770 71.278,187.985 71.018 C 188.201 70.758,188.582 69.568,188.832 68.373 C 189.296 66.158,190.366 64.575,191.800 63.982 C 193.327 63.350,205.113 63.534,206.420 64.210 M197.214 71.974 C 196.986 72.399,196.800 73.129,196.800 73.596 C 196.800 74.062,196.462 75.199,196.049 76.122 C 195.636 77.045,195.170 78.685,195.014 79.767 C 194.859 80.848,194.483 82.112,194.180 82.575 C 193.877 83.037,193.507 84.492,193.358 85.808 C 193.209 87.124,192.753 88.868,192.344 89.684 C 191.585 91.198,191.409 92.636,191.843 93.767 C 192.050 94.307,193.008 94.400,198.366 94.400 C 205.739 94.400,206.493 94.147,205.719 91.937 C 205.461 91.202,205.061 89.540,204.829 88.245 C 204.597 86.950,204.218 85.663,203.988 85.385 C 203.757 85.107,203.388 83.758,203.167 82.387 C 202.946 81.015,202.513 79.405,202.205 78.809 C 201.896 78.213,201.520 76.752,201.368 75.563 C 201.081 73.311,200.590 72.007,199.840 71.506 C 199.012 70.953,197.628 71.199,197.214 71.974 M199.590 72.790 C 200.024 73.224,200.460 73.989,200.559 74.490 C 200.658 74.990,201.028 76.570,201.383 78.000 C 201.737 79.430,202.263 81.590,202.553 82.800 C 202.842 84.010,203.394 85.900,203.778 87.000 C 206.059 93.525,205.572 94.088,197.800 93.915 C 191.806 93.782,191.749 93.734,192.938 89.821 C 193.817 86.929,194.755 83.398,195.431 80.431 C 195.753 79.018,196.185 77.659,196.391 77.411 C 196.597 77.163,196.887 76.159,197.037 75.180 C 197.526 71.989,198.178 71.378,199.590 72.790 M84.000 173.958 C 79.249 174.897,72.800 178.708,72.800 180.578 C 72.800 180.852,72.440 181.402,72.000 181.800 C 71.560 182.198,71.200 182.880,71.200 183.315 C 71.200 183.750,70.859 184.667,70.443 185.353 C 67.639 189.969,67.458 213.217,70.193 217.436 C 70.491 217.896,70.943 219.046,71.198 219.992 C 71.881 222.527,76.621 227.087,79.827 228.292 C 84.663 230.110,98.546 230.356,105.600 228.750 C 108.522 228.084,108.741 227.702,108.502 223.679 C 108.180 218.268,108.892 218.640,99.455 218.945 C 82.094 219.507,80.336 217.268,81.576 196.179 C 82.231 185.040,83.821 183.868,98.000 184.078 L 106.200 184.200 106.701 182.200 C 107.582 178.682,107.723 176.276,107.096 175.442 C 105.696 173.580,90.766 172.621,84.000 173.958 M300.200 174.350 C 296.581 175.312,294.535 177.234,292.907 181.200 C 291.527 184.561,291.491 218.198,292.863 221.784 C 295.284 228.110,298.114 229.210,311.888 229.172 C 329.868 229.122,329.714 229.169,329.336 223.846 C 328.952 218.446,329.788 218.800,317.423 218.800 C 303.646 218.800,304.400 219.249,304.400 211.048 C 304.400 204.274,303.496 204.800,315.140 204.800 C 326.812 204.800,326.400 204.962,326.400 200.377 C 326.400 195.408,326.854 195.600,315.080 195.600 C 303.560 195.600,304.400 195.998,304.400 190.534 C 304.400 186.512,304.425 186.399,305.641 185.014 L 306.883 183.600 317.592 183.600 C 329.955 183.600,328.989 183.961,329.361 179.195 C 329.778 173.849,330.976 174.270,314.950 174.140 C 307.498 174.080,300.860 174.174,300.200 174.350 M105.051 174.994 C 106.163 175.352,106.731 176.657,106.531 178.400 C 106.443 179.170,106.276 180.563,106.161 181.496 L 105.952 183.192 97.276 183.096 C 89.560 183.011,88.491 183.077,87.611 183.700 C 87.067 184.085,86.347 184.400,86.011 184.400 C 82.617 184.403,80.590 190.940,80.614 201.800 C 80.650 218.074,82.878 220.456,97.471 219.821 C 106.897 219.411,106.770 219.410,107.282 219.922 C 107.535 220.175,107.823 221.907,107.920 223.771 L 108.098 227.160 106.949 227.416 C 106.317 227.556,104.900 227.962,103.800 228.318 C 102.195 228.837,100.023 228.962,92.800 228.951 L 83.800 228.938 80.685 227.742 C 76.092 225.977,72.180 222.022,71.399 218.355 C 71.241 217.610,70.877 216.730,70.591 216.400 C 68.648 214.157,68.826 190.834,70.819 186.504 C 71.249 185.572,71.600 184.614,71.600 184.376 C 71.600 183.637,73.731 180.252,74.858 179.200 C 76.909 177.286,78.071 176.400,78.534 176.398 C 78.790 176.396,79.540 176.101,80.200 175.741 C 80.860 175.381,82.030 174.943,82.800 174.766 C 84.433 174.391,103.794 174.590,105.051 174.994 M318.710 174.750 L 328.020 174.800 328.443 175.900 C 328.699 176.565,328.761 178.146,328.599 179.900 L 328.332 182.800 317.444 182.800 L 306.557 182.800 305.178 184.221 L 303.800 185.642 303.665 190.251 C 303.471 196.866,302.626 196.400,314.819 196.400 C 326.196 196.400,325.200 195.977,325.200 200.813 L 325.200 203.962 315.019 204.081 C 302.796 204.224,303.841 203.647,303.670 210.346 C 303.425 219.942,303.114 219.727,317.600 220.000 L 328.200 220.200 328.551 223.334 C 328.831 225.826,328.790 226.577,328.351 226.998 C 326.824 228.463,304.782 228.982,300.068 227.664 C 296.989 226.802,294.364 224.464,293.573 221.877 C 292.736 219.139,292.562 186.149,293.367 182.680 C 294.770 176.632,298.374 174.477,306.800 174.648 C 308.230 174.677,313.589 174.723,318.710 174.750 M190.074 285.780 C 187.044 286.594,183.200 288.504,183.200 289.197 C 183.200 289.351,182.858 289.872,182.440 290.354 C 179.383 293.878,179.474 304.632,182.601 309.400 C 185.014 313.080,190.518 316.209,197.800 318.042 C 198.680 318.264,199.763 318.681,200.206 318.970 C 200.649 319.259,201.639 319.629,202.406 319.794 C 206.925 320.762,209.263 325.784,206.766 329.161 C 205.441 330.953,205.230 330.979,193.138 330.862 C 185.446 330.787,181.993 330.888,181.805 331.192 C 181.656 331.433,181.434 333.311,181.311 335.366 L 181.088 339.101 182.444 339.517 C 186.755 340.839,188.451 340.996,198.400 340.998 C 211.427 341.001,213.851 340.343,217.547 335.805 C 221.435 331.030,220.234 317.971,215.544 314.023 C 213.089 311.957,212.124 311.286,211.200 311.006 C 210.650 310.839,209.985 310.531,209.723 310.321 C 209.460 310.111,208.380 309.692,207.323 309.390 C 195.346 305.965,192.000 303.892,192.000 299.894 C 192.000 297.970,192.142 297.619,193.423 296.378 L 194.846 295.000 205.609 294.981 C 217.817 294.960,216.859 295.244,217.445 291.469 C 217.950 288.213,217.648 286.918,216.314 286.615 C 207.299 284.570,195.930 284.208,190.074 285.780 M204.727 285.579 C 205.453 285.787,208.242 286.163,210.924 286.413 C 216.967 286.978,217.627 287.764,216.556 293.122 L 216.311 294.344 205.180 294.472 L 194.049 294.600 192.791 296.000 C 189.970 299.138,192.001 305.322,196.151 306.233 C 196.832 306.383,197.751 306.738,198.194 307.023 C 198.637 307.308,199.720 307.666,200.600 307.819 C 201.480 307.972,202.740 308.414,203.400 308.800 C 204.060 309.186,205.240 309.616,206.022 309.755 C 206.805 309.894,208.148 310.366,209.007 310.804 C 209.866 311.242,210.820 311.600,211.127 311.600 C 212.132 311.600,216.202 315.146,216.586 316.355 C 216.733 316.820,217.008 317.200,217.196 317.200 C 219.469 317.200,219.456 332.598,217.181 335.020 C 216.752 335.477,216.400 336.059,216.400 336.312 C 216.400 336.565,215.995 336.988,215.500 337.251 C 215.005 337.515,214.420 337.962,214.200 338.245 C 213.980 338.527,212.630 339.046,211.200 339.396 C 209.770 339.747,207.970 340.202,207.200 340.408 C 204.534 341.119,193.373 340.871,188.800 340.000 C 186.491 339.560,184.027 339.200,183.324 339.200 C 181.619 339.200,181.549 339.003,181.853 335.051 C 182.175 330.852,181.354 331.142,191.706 331.578 C 205.450 332.157,208.400 331.199,208.400 326.155 C 208.400 322.873,206.156 319.620,203.869 319.587 C 203.391 319.581,202.100 319.132,201.000 318.591 C 199.900 318.050,198.684 317.606,198.299 317.604 C 197.913 317.602,196.925 317.240,196.104 316.800 C 195.284 316.360,194.196 316.000,193.688 316.000 C 193.179 316.000,191.918 315.550,190.885 315.000 C 189.852 314.450,188.808 314.000,188.565 314.000 C 188.323 314.000,187.798 313.640,187.400 313.200 C 187.002 312.760,186.510 312.400,186.307 312.400 C 185.864 312.400,183.600 310.189,183.600 309.757 C 183.600 309.589,183.251 309.080,182.824 308.626 C 181.389 307.098,180.619 300.376,181.353 295.778 C 182.312 289.765,184.757 287.308,190.636 286.448 C 192.376 286.193,194.340 285.824,195.000 285.627 C 196.625 285.142,203.091 285.110,204.727 285.579 " stroke="none" fill="#93cad0" fill-rule="evenodd"></path><path id="path3" d="M44.500 155.375 C 20.685 179.214,1.200 198.916,1.200 199.159 C 1.200 199.401,0.930 199.600,0.600 199.600 C 0.270 199.600,0.000 199.780,0.000 200.000 C 0.000 200.220,0.201 200.400,0.446 200.400 C 0.691 200.400,4.288 203.865,8.438 208.100 C 12.589 212.335,16.214 216.022,16.493 216.293 C 17.002 216.788,70.477 270.251,71.600 271.388 C 84.152 284.100,88.097 287.637,88.929 286.923 C 89.392 286.525,96.310 279.675,104.302 271.700 C 112.294 263.725,119.075 257.200,119.370 257.200 C 119.844 257.200,138.558 275.621,141.690 279.170 C 142.743 280.364,142.859 280.415,142.591 279.570 C 142.422 279.036,137.360 273.671,131.342 267.646 C 125.324 261.621,120.400 256.525,120.400 256.321 C 120.400 255.283,117.779 256.245,117.200 257.495 C 116.870 258.207,116.294 258.891,115.920 259.015 C 115.547 259.139,115.136 259.572,115.007 259.977 C 114.879 260.382,114.419 260.806,113.987 260.919 C 113.554 261.033,113.200 261.400,113.200 261.736 C 113.200 262.071,112.849 262.457,112.420 262.594 C 111.992 262.730,111.536 263.172,111.407 263.577 C 111.279 263.982,110.819 264.406,110.387 264.519 C 109.954 264.633,109.600 265.000,109.600 265.336 C 109.600 265.671,109.240 266.060,108.800 266.200 C 108.360 266.340,108.000 266.729,108.000 267.064 C 108.000 267.400,107.646 267.767,107.213 267.881 C 106.781 267.994,106.325 268.408,106.200 268.800 C 106.075 269.192,105.619 269.606,105.187 269.719 C 104.754 269.833,104.400 270.183,104.400 270.498 C 104.400 270.814,103.950 271.277,103.400 271.527 C 102.850 271.778,102.400 272.236,102.400 272.545 C 102.400 272.854,102.040 273.201,101.600 273.316 C 101.160 273.431,100.800 273.800,100.800 274.136 C 100.800 274.471,100.449 274.857,100.020 274.994 C 99.592 275.130,99.136 275.572,99.007 275.977 C 98.879 276.382,98.419 276.806,97.987 276.919 C 97.554 277.033,97.200 277.412,97.200 277.763 C 97.200 278.113,96.926 278.400,96.591 278.400 C 96.257 278.400,95.785 278.835,95.543 279.366 C 95.301 279.897,94.764 280.421,94.351 280.529 C 93.938 280.637,93.600 281.000,93.600 281.336 C 93.600 281.671,93.240 282.060,92.800 282.200 C 92.360 282.340,92.000 282.729,92.000 283.064 C 92.000 283.400,91.646 283.767,91.213 283.881 C 90.781 283.994,90.324 284.409,90.199 284.803 C 89.449 287.167,88.205 286.395,80.629 278.865 C 76.653 274.912,72.995 271.559,72.500 271.412 C 72.005 271.266,71.600 270.843,71.600 270.472 C 71.600 269.592,18.406 216.400,17.526 216.400 C 17.156 216.400,16.734 215.995,16.588 215.500 C 16.441 215.005,13.111 211.360,9.186 207.400 C 1.727 199.873,0.891 198.533,3.201 197.800 C 3.593 197.675,4.006 197.219,4.119 196.787 C 4.233 196.354,4.600 196.000,4.936 196.000 C 5.271 196.000,5.660 195.640,5.800 195.200 C 5.940 194.760,6.316 194.400,6.637 194.400 C 6.957 194.400,7.391 193.950,7.600 193.400 C 7.809 192.850,8.243 192.400,8.563 192.400 C 8.884 192.400,9.254 192.059,9.386 191.643 C 9.518 191.227,9.981 190.794,10.413 190.681 C 10.846 190.567,11.200 190.200,11.200 189.864 C 11.200 189.529,11.551 189.143,11.980 189.006 C 12.408 188.870,12.864 188.428,12.993 188.023 C 13.121 187.618,13.581 187.194,14.013 187.081 C 14.446 186.967,14.800 186.600,14.800 186.264 C 14.800 185.929,15.151 185.543,15.580 185.406 C 16.008 185.270,16.470 184.808,16.606 184.380 C 16.743 183.951,17.100 183.600,17.400 183.600 C 17.700 183.600,18.057 183.249,18.194 182.820 C 18.330 182.392,18.772 181.936,19.177 181.807 C 19.582 181.679,20.006 181.219,20.119 180.787 C 20.233 180.354,20.600 180.000,20.936 180.000 C 21.271 180.000,21.654 179.659,21.786 179.243 C 21.918 178.827,22.381 178.394,22.813 178.281 C 23.246 178.167,23.600 177.800,23.600 177.464 C 23.600 177.129,23.951 176.743,24.380 176.606 C 24.808 176.470,25.264 176.028,25.393 175.623 C 25.521 175.218,25.981 174.794,26.413 174.681 C 26.846 174.567,27.200 174.200,27.200 173.864 C 27.200 173.529,27.551 173.143,27.980 173.006 C 28.408 172.870,28.864 172.428,28.993 172.023 C 29.121 171.618,29.581 171.194,30.013 171.081 C 30.446 170.967,30.800 170.600,30.800 170.264 C 30.800 169.929,31.151 169.543,31.580 169.406 C 32.008 169.270,32.470 168.808,32.606 168.380 C 32.743 167.951,33.100 167.600,33.400 167.600 C 33.700 167.600,34.057 167.249,34.194 166.820 C 34.330 166.392,34.772 165.936,35.177 165.807 C 35.582 165.679,36.006 165.219,36.119 164.787 C 36.233 164.354,36.600 164.000,36.936 164.000 C 37.271 164.000,37.654 163.659,37.786 163.243 C 37.918 162.827,38.381 162.394,38.813 162.281 C 39.246 162.167,39.600 161.800,39.600 161.464 C 39.600 161.129,39.951 160.743,40.380 160.606 C 40.808 160.470,41.264 160.028,41.393 159.623 C 41.521 159.218,41.981 158.794,42.413 158.681 C 42.846 158.567,43.200 158.200,43.200 157.864 C 43.200 157.529,43.551 157.143,43.980 157.006 C 44.408 156.870,44.864 156.428,44.993 156.023 C 45.121 155.618,45.581 155.194,46.013 155.081 C 46.446 154.967,46.800 154.600,46.800 154.264 C 46.800 153.929,47.151 153.543,47.580 153.406 C 48.008 153.270,48.464 152.828,48.593 152.423 C 48.721 152.018,49.181 151.594,49.613 151.481 C 50.046 151.367,50.400 151.000,50.400 150.664 C 50.400 150.329,50.760 149.940,51.200 149.800 C 51.640 149.660,52.000 149.271,52.000 148.936 C 52.000 148.600,52.354 148.233,52.787 148.119 C 53.219 148.006,53.675 147.592,53.800 147.200 C 53.925 146.808,54.381 146.394,54.813 146.281 C 55.246 146.167,55.600 145.800,55.600 145.464 C 55.600 145.129,55.951 144.743,56.380 144.606 C 56.808 144.470,57.264 144.028,57.393 143.623 C 57.521 143.218,57.981 142.794,58.413 142.681 C 58.846 142.567,59.200 142.200,59.200 141.864 C 59.200 141.529,59.551 141.143,59.980 141.006 C 60.408 140.870,60.870 140.408,61.006 139.980 C 61.143 139.551,61.529 139.200,61.864 139.200 C 62.200 139.200,62.567 138.846,62.681 138.413 C 62.794 137.981,63.218 137.521,63.623 137.393 C 64.028 137.264,64.464 136.828,64.593 136.423 C 64.721 136.018,65.181 135.594,65.613 135.481 C 66.046 135.367,66.400 135.000,66.400 134.664 C 66.400 134.329,66.741 133.946,67.157 133.814 C 67.573 133.682,68.006 133.219,68.119 132.787 C 68.233 132.354,68.600 132.000,68.936 132.000 C 69.271 132.000,69.657 131.649,69.794 131.220 C 69.930 130.792,70.392 130.330,70.820 130.194 C 71.249 130.057,71.600 129.700,71.600 129.400 C 71.600 129.100,71.951 128.743,72.380 128.606 C 72.808 128.470,73.264 128.028,73.393 127.623 C 73.521 127.218,73.981 126.794,74.413 126.681 C 74.846 126.567,75.200 126.200,75.200 125.864 C 75.200 125.529,75.551 125.143,75.980 125.006 C 76.408 124.870,76.864 124.428,76.993 124.023 C 77.121 123.618,77.581 123.194,78.013 123.081 C 78.446 122.967,78.800 122.600,78.800 122.264 C 78.800 121.929,79.151 121.543,79.580 121.406 C 80.008 121.270,80.464 120.828,80.593 120.423 C 80.721 120.018,81.181 119.594,81.613 119.481 C 82.046 119.367,82.400 119.000,82.400 118.664 C 82.400 118.329,82.741 117.946,83.157 117.814 C 83.573 117.682,84.006 117.219,84.119 116.787 C 84.233 116.354,84.600 116.000,84.936 116.000 C 85.271 116.000,85.657 115.649,85.794 115.220 C 85.930 114.792,86.392 114.330,86.820 114.194 C 87.249 114.057,87.600 113.688,87.600 113.373 C 87.600 112.462,87.659 112.513,93.571 118.500 C 100.380 125.397,99.167 124.184,103.100 128.031 C 104.915 129.807,106.400 131.426,106.400 131.630 C 106.400 131.833,106.601 132.000,106.846 132.000 C 107.339 132.000,110.000 134.766,110.000 135.278 C 110.000 135.455,110.195 135.600,110.434 135.600 C 110.673 135.600,112.439 137.220,114.357 139.200 C 119.103 144.097,119.193 144.094,124.445 138.853 C 126.620 136.682,128.400 134.702,128.400 134.453 C 128.400 134.204,128.594 134.000,128.832 134.000 C 129.395 134.000,134.000 129.395,134.000 128.832 C 134.000 128.594,134.211 128.400,134.469 128.400 C 135.226 128.400,142.801 120.485,142.788 119.708 C 142.776 119.040,142.753 119.040,142.372 119.693 C 140.997 122.053,119.904 142.391,119.053 142.178 C 118.554 142.052,111.409 135.211,103.175 126.975 C 94.941 118.739,88.113 112.008,88.002 112.017 C 87.891 112.026,68.315 131.537,44.500 155.375 M310.981 112.690 C 310.530 112.769,303.511 119.487,295.383 127.617 C 287.254 135.748,280.311 142.400,279.952 142.400 C 279.422 142.400,276.372 139.542,271.200 134.199 C 266.510 129.354,256.674 119.993,256.478 120.188 C 256.102 120.565,279.434 143.600,280.192 143.600 C 280.545 143.600,287.498 136.940,295.643 128.800 C 304.041 120.407,310.760 114.000,311.165 114.000 C 311.729 114.000,397.600 199.304,397.600 199.865 C 397.600 200.220,311.549 286.000,311.193 286.000 C 310.970 286.000,304.315 279.520,296.406 271.600 C 288.496 263.680,281.912 257.200,281.776 257.200 C 281.640 257.200,281.217 256.816,280.838 256.347 C 280.154 255.503,280.030 255.611,268.242 267.382 C 261.694 273.920,256.446 279.379,256.580 279.513 C 256.714 279.648,261.911 274.682,268.128 268.479 C 274.345 262.275,279.572 257.200,279.742 257.200 C 280.610 257.200,282.620 259.086,295.859 272.331 C 303.747 280.222,310.581 286.772,311.046 286.887 C 312.112 287.151,398.400 201.123,398.400 199.797 C 398.400 198.552,312.041 112.502,310.981 112.690 M85.400 172.278 C 84.960 172.398,84.245 172.745,83.811 173.048 C 83.377 173.352,82.441 173.600,81.730 173.600 C 80.367 173.600,78.400 174.324,78.400 174.825 C 78.400 174.988,77.860 175.310,77.200 175.540 C 76.540 175.770,76.000 176.139,76.000 176.360 C 76.000 176.582,75.384 177.055,74.631 177.412 C 73.812 177.801,72.996 178.621,72.601 179.455 C 72.237 180.221,71.688 180.945,71.381 181.063 C 71.073 181.181,70.702 181.915,70.556 182.693 C 70.410 183.472,69.955 184.445,69.545 184.855 C 69.026 185.374,68.800 186.180,68.800 187.511 C 68.800 188.688,68.531 189.802,68.100 190.411 C 66.925 192.071,66.821 210.628,67.974 212.841 C 68.428 213.712,68.800 215.139,68.800 216.012 C 68.800 217.028,69.069 217.869,69.545 218.345 C 69.955 218.755,70.414 219.749,70.565 220.554 C 70.716 221.359,71.191 222.237,71.620 222.505 C 72.049 222.773,72.400 223.138,72.400 223.316 C 72.400 223.821,75.026 226.400,75.540 226.400 C 75.793 226.400,76.000 226.644,76.000 226.943 C 76.000 227.878,79.995 229.663,82.600 229.892 C 83.920 230.009,85.271 230.338,85.602 230.625 C 86.438 231.350,98.334 231.334,99.200 230.607 C 99.545 230.318,101.477 230.009,103.746 229.881 C 107.610 229.663,107.717 229.631,108.830 228.329 C 109.962 227.006,110.317 226.000,109.650 226.000 C 109.458 226.000,109.221 224.483,109.123 222.629 C 108.864 217.683,109.645 218.000,97.713 218.000 C 88.476 218.000,87.424 217.931,86.462 217.265 C 85.878 216.861,85.085 216.417,84.700 216.278 C 84.283 216.127,84.000 215.614,84.000 215.009 C 84.000 214.450,83.640 213.684,83.200 213.307 C 82.437 212.654,82.400 212.127,82.400 201.874 C 82.400 191.732,82.445 191.069,83.200 190.109 C 83.640 189.550,84.000 188.801,84.000 188.445 C 84.000 188.089,84.571 187.258,85.269 186.599 L 86.538 185.400 96.562 185.274 C 107.173 185.140,107.182 185.139,107.194 183.189 C 107.197 182.633,107.492 181.761,107.849 181.251 C 108.206 180.742,108.582 179.217,108.684 177.862 C 108.945 174.409,108.522 173.959,104.770 173.693 C 103.051 173.571,101.387 173.212,100.819 172.841 C 99.828 172.193,87.381 171.739,85.400 172.278 M304.242 173.091 C 304.082 173.252,302.657 173.492,301.075 173.625 C 297.272 173.946,292.800 177.065,292.800 179.397 C 292.800 179.881,292.440 180.602,292.000 181.000 C 291.220 181.705,291.200 182.232,291.200 201.600 C 291.200 220.968,291.220 221.495,292.000 222.200 C 292.440 222.598,292.802 223.301,292.804 223.762 C 292.810 224.826,295.814 228.000,296.814 228.000 C 297.229 228.000,297.946 228.405,298.408 228.900 L 299.247 229.800 314.182 229.800 C 332.206 229.800,331.045 230.152,330.639 224.814 C 330.105 217.783,330.567 218.013,316.924 218.005 C 304.669 217.999,305.853 218.621,305.661 212.091 C 305.467 205.476,304.625 206.000,315.457 206.000 C 324.336 206.000,324.430 205.991,326.008 204.995 L 327.600 203.990 327.595 200.695 C 327.585 194.651,327.918 194.805,314.865 194.802 L 305.529 194.800 305.665 190.419 C 305.846 184.548,304.828 185.022,317.562 184.882 L 328.285 184.764 329.328 183.675 C 330.250 182.712,330.402 182.144,330.640 178.754 C 331.020 173.347,331.573 173.600,319.391 173.600 C 312.694 173.600,309.621 173.461,309.302 173.142 C 308.959 172.799,308.534 172.813,307.600 173.200 C 306.666 173.587,306.241 173.601,305.898 173.258 C 305.375 172.735,304.669 172.664,304.242 173.091 M101.563 173.952 C 108.131 174.921,108.412 175.372,106.701 182.200 L 106.200 184.200 98.000 184.078 C 83.821 183.868,82.231 185.040,81.576 196.179 C 80.336 217.268,82.094 219.507,99.455 218.945 C 108.892 218.640,108.180 218.268,108.502 223.679 C 108.741 227.702,108.522 228.084,105.600 228.750 C 98.546 230.356,84.663 230.110,79.827 228.292 C 76.621 227.087,71.881 222.527,71.198 219.992 C 70.943 219.046,70.491 217.896,70.193 217.436 C 67.458 213.217,67.639 189.969,70.443 185.353 C 70.859 184.667,71.200 183.750,71.200 183.315 C 71.200 182.880,71.560 182.198,72.000 181.800 C 72.440 181.402,72.800 180.852,72.800 180.578 C 72.800 179.893,77.040 176.356,79.000 175.406 C 83.344 173.299,92.938 172.681,101.563 173.952 M329.064 175.019 C 329.701 175.891,329.417 182.195,328.699 183.100 C 328.399 183.478,325.682 183.600,317.592 183.600 L 306.883 183.600 305.641 185.014 C 304.425 186.399,304.400 186.512,304.400 190.534 C 304.400 195.998,303.560 195.600,315.080 195.600 C 326.854 195.600,326.400 195.408,326.400 200.377 C 326.400 204.962,326.812 204.800,315.140 204.800 C 303.496 204.800,304.400 204.274,304.400 211.048 C 304.400 219.249,303.646 218.800,317.423 218.800 C 329.788 218.800,328.952 218.446,329.336 223.846 C 329.714 229.169,329.868 229.122,311.888 229.172 C 298.114 229.210,295.284 228.110,292.863 221.784 C 291.491 218.198,291.527 184.561,292.907 181.200 C 294.535 177.234,296.581 175.312,300.200 174.350 C 303.026 173.598,328.456 174.188,329.064 175.019 " stroke="none" fill="#5fc4c4" fill-rule="evenodd"></path><path id="path4" d="M198.800 1.096 C 198.250 1.652,178.495 21.382,154.900 44.940 C 131.305 68.498,112.000 87.969,112.000 88.207 C 112.000 88.446,118.584 95.202,126.630 103.221 C 134.677 111.239,141.510 118.340,141.814 119.000 C 142.360 120.181,142.369 120.184,142.384 119.189 C 142.397 118.383,139.333 115.112,127.300 103.084 L 112.200 87.991 113.600 86.896 C 114.370 86.294,115.990 84.742,117.200 83.448 C 118.410 82.153,120.014 80.533,120.764 79.847 C 121.515 79.161,123.045 77.633,124.164 76.451 C 125.284 75.269,127.263 73.289,128.561 72.051 C 131.793 68.970,133.575 67.190,135.047 65.571 C 135.733 64.817,137.353 63.186,138.647 61.946 C 139.941 60.706,142.365 58.276,144.034 56.546 C 145.702 54.816,147.682 52.849,148.434 52.176 C 149.185 51.502,150.813 49.882,152.051 48.576 C 153.289 47.269,155.269 45.284,156.451 44.164 C 157.633 43.045,159.161 41.515,159.847 40.764 C 160.533 40.014,162.153 38.396,163.447 37.168 C 164.741 35.940,166.813 33.870,168.051 32.568 C 169.289 31.266,171.269 29.284,172.451 28.164 C 173.633 27.045,175.164 25.515,175.854 24.764 C 176.544 24.014,178.164 22.400,179.454 21.177 C 180.744 19.955,182.816 17.885,184.059 16.577 C 185.301 15.270,187.641 12.898,189.259 11.307 C 190.876 9.715,192.380 8.225,192.600 7.995 C 195.025 5.457,198.824 2.046,199.445 1.849 C 200.259 1.591,286.040 86.814,286.325 88.165 C 286.427 88.645,284.343 91.027,279.997 95.400 C 279.778 95.620,277.799 97.600,275.599 99.800 C 273.399 102.000,271.464 103.941,271.300 104.112 C 271.135 104.284,269.560 105.852,267.800 107.597 C 266.040 109.341,264.420 110.958,264.200 111.190 C 263.980 111.421,262.447 112.913,260.792 114.505 C 257.304 117.863,256.127 119.487,256.741 120.101 C 257.027 120.387,257.234 120.206,257.408 119.512 C 257.557 118.918,263.351 112.828,271.640 104.555 C 279.330 96.880,286.070 90.022,286.619 89.315 L 287.618 88.030 244.009 44.420 C 220.024 20.434,200.400 0.627,200.400 0.405 C 200.400 -0.226,199.889 -0.005,198.800 1.096 M191.573 62.328 C 189.979 63.020,188.692 64.498,188.168 66.241 C 187.858 67.271,187.439 68.312,187.237 68.556 C 187.035 68.800,186.662 70.150,186.407 71.557 C 186.153 72.963,185.706 74.493,185.415 74.957 C 185.125 75.420,184.761 76.700,184.608 77.800 C 184.454 78.900,184.070 80.090,183.752 80.445 C 183.435 80.799,183.016 82.059,182.821 83.245 C 182.626 84.430,182.183 85.940,181.836 86.600 C 181.489 87.260,181.200 88.250,181.194 88.800 C 181.187 89.350,180.847 90.539,180.437 91.442 C 180.027 92.345,179.486 94.042,179.234 95.214 C 178.983 96.386,178.601 97.558,178.385 97.818 C 178.170 98.078,177.800 99.333,177.565 100.608 C 177.329 101.882,176.890 103.302,176.588 103.763 C 176.287 104.223,175.920 105.410,175.773 106.400 C 175.626 107.390,175.271 108.577,174.985 109.037 C 174.698 109.498,174.276 110.888,174.047 112.127 C 173.818 113.366,173.359 114.906,173.026 115.550 C 172.066 117.405,172.885 117.775,178.308 117.936 C 185.685 118.154,186.535 117.800,187.008 114.310 C 187.165 113.150,187.526 111.746,187.810 111.192 C 188.093 110.637,188.522 109.121,188.762 107.823 C 189.579 103.404,189.105 103.600,198.962 103.600 L 207.505 103.600 208.189 105.500 C 208.565 106.545,209.114 108.660,209.408 110.200 C 209.702 111.740,210.224 113.540,210.569 114.200 C 210.913 114.860,211.196 115.702,211.198 116.071 C 211.204 117.966,221.535 119.105,223.786 117.460 C 224.647 116.830,224.434 113.722,223.425 112.183 C 223.112 111.704,222.657 110.216,222.414 108.875 C 222.170 107.534,221.709 105.933,221.388 105.318 C 221.067 104.703,220.804 103.743,220.802 103.185 C 220.801 102.626,220.436 101.456,219.990 100.585 C 219.545 99.713,219.065 98.280,218.924 97.400 C 218.784 96.520,218.342 95.080,217.943 94.200 C 217.544 93.320,217.214 92.039,217.209 91.354 C 217.204 90.669,216.857 89.671,216.437 89.138 C 216.018 88.605,215.545 87.275,215.388 86.184 C 215.231 85.093,214.764 83.445,214.351 82.522 C 213.938 81.599,213.600 80.468,213.600 80.009 C 213.600 79.550,213.311 78.505,212.959 77.687 C 212.606 76.869,212.081 75.300,211.791 74.200 C 211.502 73.100,210.989 71.480,210.650 70.600 C 210.312 69.720,210.027 68.582,210.018 68.071 C 209.991 66.655,208.100 63.727,206.623 62.814 C 205.277 61.982,193.264 61.594,191.573 62.328 M206.388 63.394 C 207.586 64.014,209.600 67.632,209.600 69.166 C 209.600 69.615,210.050 71.177,210.600 72.638 C 211.150 74.100,211.601 75.589,211.602 75.948 C 211.604 76.306,211.867 77.103,212.188 77.717 C 212.508 78.331,212.891 79.501,213.039 80.317 C 213.186 81.133,213.629 82.700,214.021 83.800 C 214.414 84.900,214.864 86.427,215.020 87.194 C 215.177 87.961,215.538 88.951,215.822 89.394 C 216.106 89.837,216.526 91.231,216.754 92.490 C 216.982 93.750,217.446 95.316,217.785 95.970 C 218.123 96.625,218.408 97.484,218.418 97.880 C 218.427 98.276,218.710 99.320,219.045 100.200 C 219.622 101.714,220.326 104.040,222.011 110.000 C 222.416 111.430,223.037 113.393,223.392 114.361 C 224.438 117.211,224.386 117.237,217.908 117.111 L 212.200 117.000 211.136 113.800 C 210.551 112.040,210.056 110.189,210.036 109.687 C 209.976 108.162,208.391 103.832,207.698 103.300 C 206.777 102.592,191.408 102.606,190.000 103.316 C 189.313 103.662,188.893 104.317,188.659 105.410 C 188.471 106.284,188.055 107.810,187.735 108.800 C 187.415 109.790,186.895 111.860,186.579 113.400 C 185.815 117.127,185.680 117.201,179.624 117.194 C 173.220 117.186,173.347 117.274,174.414 113.564 C 174.883 111.934,175.600 109.430,176.007 108.000 C 176.414 106.570,177.013 104.590,177.338 103.600 C 178.120 101.217,179.290 97.415,180.600 93.000 C 181.188 91.020,182.003 88.410,182.412 87.200 C 182.821 85.990,183.279 84.371,183.431 83.602 C 183.583 82.832,183.940 81.662,184.224 81.002 C 184.509 80.341,185.213 78.180,185.789 76.200 C 189.885 62.113,189.222 62.800,198.713 62.800 C 203.701 62.800,205.510 62.940,206.388 63.394 M197.669 72.700 C 197.471 73.085,197.187 74.201,197.037 75.180 C 196.887 76.159,196.597 77.163,196.391 77.411 C 196.185 77.659,195.753 79.018,195.431 80.431 C 194.755 83.398,193.817 86.929,192.938 89.821 C 191.749 93.734,191.806 93.782,197.800 93.915 C 205.572 94.088,206.059 93.525,203.778 87.000 C 203.394 85.900,202.842 84.010,202.553 82.800 C 202.263 81.590,201.737 79.430,201.383 78.000 C 201.028 76.570,200.658 74.990,200.559 74.490 C 200.187 72.601,198.315 71.441,197.669 72.700 M200.586 77.447 C 200.747 78.741,201.124 80.390,201.424 81.112 C 201.724 81.833,202.169 83.524,202.412 84.868 C 202.656 86.213,203.113 87.706,203.428 88.187 C 204.047 89.131,204.305 91.983,203.839 92.736 C 203.648 93.046,201.979 93.200,198.825 93.200 C 193.498 93.200,192.682 92.856,193.541 90.969 C 193.794 90.415,194.000 89.516,194.000 88.971 C 194.000 88.426,194.351 86.982,194.780 85.761 C 195.209 84.541,195.685 82.707,195.838 81.685 C 195.991 80.663,196.447 79.100,196.850 78.213 C 197.253 77.326,197.586 76.030,197.591 75.333 C 197.618 71.505,200.064 73.232,200.586 77.447 M264.400 127.800 C 265.146 128.570,265.847 129.200,265.957 129.200 C 266.067 129.200,265.546 128.570,264.800 127.800 C 264.054 127.030,263.353 126.400,263.243 126.400 C 263.133 126.400,263.654 127.030,264.400 127.800 M256.700 279.476 C 255.462 279.799,255.776 280.149,270.937 295.324 C 279.152 303.547,285.970 310.641,286.087 311.088 C 286.402 312.295,200.482 398.207,199.327 397.840 C 198.431 397.556,112.800 312.056,112.800 311.446 C 112.800 311.226,119.460 304.370,127.600 296.211 C 139.283 284.501,142.395 281.168,142.375 280.388 L 142.349 279.400 141.957 280.400 C 141.741 280.950,134.912 288.066,126.782 296.212 C 118.652 304.359,112.000 311.215,112.000 311.448 C 112.000 312.018,198.117 398.082,199.058 398.452 C 199.466 398.612,199.968 398.756,200.174 398.772 C 201.298 398.856,287.162 312.186,286.928 311.204 C 286.784 310.598,281.392 304.900,273.339 296.843 C 257.777 281.272,257.070 280.516,257.358 279.766 C 257.477 279.455,257.536 279.221,257.487 279.246 C 257.439 279.272,257.085 279.375,256.700 279.476 M193.600 284.343 C 192.170 284.492,190.190 284.913,189.200 285.279 C 188.210 285.645,186.931 286.044,186.358 286.165 C 181.465 287.202,177.073 300.807,180.082 305.607 C 180.425 306.153,180.831 307.139,180.984 307.797 C 181.290 309.106,181.489 309.375,184.057 311.943 C 186.465 314.350,186.857 314.655,188.000 315.004 C 188.550 315.172,189.429 315.645,189.954 316.055 C 190.479 316.465,191.251 316.800,191.670 316.800 C 192.089 316.800,193.100 317.135,193.916 317.544 C 194.732 317.953,196.205 318.411,197.190 318.563 C 198.174 318.714,199.276 319.107,199.640 319.436 C 200.003 319.765,200.998 320.146,201.850 320.283 C 205.937 320.939,208.087 324.737,206.345 328.224 C 205.234 330.448,205.611 330.388,192.690 330.395 L 181.580 330.400 181.190 331.426 C 180.976 331.990,180.796 333.205,180.790 334.126 C 180.785 335.047,180.626 336.466,180.437 337.280 C 179.801 340.017,182.309 341.058,191.000 341.662 C 208.142 342.855,217.696 340.336,219.028 334.273 C 219.180 333.579,219.576 332.599,219.906 332.094 C 221.654 329.427,220.339 318.860,217.866 315.697 C 215.461 312.621,211.075 309.657,207.966 309.007 C 207.215 308.850,206.240 308.499,205.800 308.226 C 205.360 307.954,204.128 307.515,203.063 307.251 C 201.997 306.986,200.737 306.527,200.263 306.230 C 199.788 305.933,198.700 305.567,197.845 305.417 C 193.312 304.620,191.026 300.029,193.674 297.039 L 194.947 295.600 205.629 295.600 C 218.328 295.600,217.821 295.768,218.432 291.359 C 218.888 288.064,218.495 286.528,217.114 286.214 C 215.542 285.857,213.064 285.262,211.429 284.849 C 209.417 284.341,197.005 283.989,193.600 284.343 M210.648 285.604 C 217.180 286.709,217.187 286.711,217.559 287.711 C 217.910 288.656,217.223 294.116,216.686 294.650 C 216.513 294.822,211.528 294.971,205.609 294.981 L 194.846 295.000 193.423 296.378 C 192.142 297.619,192.000 297.970,192.000 299.894 C 192.000 303.892,195.346 305.965,207.323 309.390 C 208.380 309.692,209.460 310.111,209.723 310.321 C 209.985 310.531,210.650 310.839,211.200 311.006 C 212.124 311.286,213.089 311.957,215.544 314.023 C 220.234 317.971,221.435 331.030,217.547 335.805 C 213.851 340.343,211.427 341.001,198.400 340.998 C 188.451 340.996,186.755 340.839,182.444 339.517 L 181.088 339.101 181.311 335.366 C 181.434 333.311,181.656 331.433,181.805 331.192 C 181.993 330.888,185.446 330.787,193.138 330.862 C 205.230 330.979,205.441 330.953,206.766 329.161 C 209.263 325.784,206.925 320.762,202.406 319.794 C 201.639 319.629,200.649 319.259,200.206 318.970 C 199.763 318.681,198.680 318.264,197.800 318.042 C 190.518 316.209,185.014 313.080,182.601 309.400 C 179.474 304.632,179.383 293.878,182.440 290.354 C 182.858 289.872,183.200 289.351,183.200 289.197 C 183.200 288.504,187.044 286.594,190.074 285.780 C 194.701 284.538,203.882 284.459,210.648 285.604 " stroke="none" fill="#7cacbc" fill-rule="evenodd"></path></g></svg>